<svg width="466" height="389" viewBox="0 0 466 389" fill="none" xmlns="http://www.w3.org/2000/svg">
<g clip-path="url(#clip0_330_4)">
<rect width="466" height="388.333" transform="translate(0 0.0164795)" fill="white"/>
<path d="M375.928 379.211L62.1333 95.2698L111.203 0.0164795L456.22 376.879L375.928 379.211Z" fill="#F2F2F2"/>
<path d="M233 80.3577C243.485 80.3577 251.985 71.8838 251.985 61.4308C251.985 50.9778 243.485 42.5039 233 42.5039C222.515 42.5039 214.015 50.9778 214.015 61.4308C214.015 71.8838 222.515 80.3577 233 80.3577Z" fill="#F2F2F2"/>
<path d="M316.42 106.741C319.915 106.741 322.748 103.916 322.748 100.432C322.748 96.9473 319.915 94.1227 316.42 94.1227C312.925 94.1227 310.091 96.9473 310.091 100.432C310.091 103.916 312.925 106.741 316.42 106.741Z" fill="#3F3D56"/>
<path d="M316.42 156.639C319.915 156.639 322.748 153.814 322.748 150.33C322.748 146.845 319.915 144.021 316.42 144.021C312.925 144.021 310.091 146.845 310.091 150.33C310.091 153.814 312.925 156.639 316.42 156.639Z" fill="#3F3D56"/>
<path d="M379.704 169.257C383.199 169.257 386.032 166.432 386.032 162.948C386.032 159.463 383.199 156.639 379.704 156.639C376.209 156.639 373.375 159.463 373.375 162.948C373.375 166.432 376.209 169.257 379.704 169.257Z" fill="#3F3D56"/>
<path d="M233 388.35C361.682 388.35 466 383.214 466 376.879C466 370.544 361.682 365.408 233 365.408C104.318 365.408 0 370.544 0 376.879C0 383.214 104.318 388.35 233 388.35Z" fill="#F2F2F2"/>
<path d="M369.3 190.567C366.657 186.222 357.426 186.334 357.426 186.334C349.021 198.783 328.818 185.559 328.818 185.559C313.813 192.252 304.657 170.924 304.657 170.924C284.467 167.914 287.586 146.774 287.586 146.774C277.541 144.764 280.36 126.658 280.36 126.658C280.36 126.658 285.933 122.1 283.191 118.766C281.447 116.647 281.338 110.563 281.491 106.411C268.382 102.436 254.755 100.421 241.054 100.432C164.48 100.432 102.405 162.316 102.405 238.655C102.405 314.994 164.48 376.879 241.054 376.879C317.628 376.879 379.704 314.994 379.704 238.655C379.72 222.071 376.736 205.619 370.894 190.091C370.183 190.892 369.631 191.112 369.3 190.567Z" fill="#3F3D56"/>
<path opacity="0.1" d="M369.3 190.567C366.657 186.222 357.426 186.334 357.426 186.334C349.021 198.783 328.818 185.559 328.818 185.559C313.813 192.252 304.657 170.924 304.657 170.924C284.467 167.914 287.586 146.774 287.586 146.774C277.541 144.764 280.36 126.658 280.36 126.658C280.36 126.658 285.933 122.1 283.191 118.766C281.447 116.647 281.338 110.563 281.491 106.411C268.382 102.436 254.755 100.421 241.054 100.432C164.48 100.432 102.405 162.316 102.405 238.655C102.405 314.994 164.48 376.879 241.054 376.879C317.628 376.879 379.704 314.994 379.704 238.655C379.72 222.071 376.736 205.619 370.894 190.091C370.183 190.892 369.631 191.112 369.3 190.567Z" fill="black"/>
<path d="M361.083 190.021C358.57 185.889 349.79 185.995 349.79 185.995C341.797 197.835 322.583 185.258 322.583 185.258C308.312 191.623 299.605 171.34 299.605 171.34C280.403 168.477 283.369 148.372 283.369 148.372C273.816 146.46 276.496 129.24 276.496 129.24C276.496 129.24 281.797 124.906 279.189 121.735C277.53 119.719 277.427 113.934 277.572 109.984C265.105 106.205 252.146 104.288 239.115 104.298C166.29 104.298 107.253 163.154 107.253 235.756C107.253 308.358 166.29 367.213 239.115 367.213C311.941 367.213 370.977 308.357 370.977 235.756C370.993 219.983 368.155 204.337 362.599 189.568C361.923 190.33 361.398 190.539 361.083 190.021Z" fill="#3F3D56"/>
<path d="M223.371 182.011C223.371 182.011 200.632 167.585 178.926 182.011C171.329 187.06 167.531 194.255 165.803 201.475C162.73 214.312 166.1 227.846 174.317 238.194L223.42 300.029C225.104 302.183 227.362 303.822 229.936 304.757C232.51 305.692 235.296 305.886 237.975 305.317C238.082 305.293 238.189 305.268 238.296 305.242C240.237 304.766 242.059 303.899 243.65 302.695C245.242 301.49 246.569 299.973 247.55 298.238L281.7 238.452C288.017 227.565 290.607 214.922 289.077 202.437C287.475 190.141 281.553 177.181 264.714 172.737C264.714 172.737 245.076 164.494 223.371 182.011Z" fill="#758E4F"/>
<path opacity="0.1" d="M223.371 182.011C223.371 182.011 200.632 167.585 178.926 182.011C171.329 187.06 167.531 194.255 165.803 201.475C162.73 214.312 166.1 227.846 174.317 238.194L223.42 300.029C225.104 302.183 227.362 303.822 229.936 304.757C232.51 305.692 235.296 305.886 237.975 305.317C238.082 305.293 238.189 305.268 238.296 305.242C240.237 304.766 242.059 303.899 243.65 302.695C245.242 301.49 246.569 299.973 247.55 298.238L281.7 238.452C288.017 227.565 290.607 214.922 289.077 202.437C287.475 190.141 281.553 177.181 264.714 172.737C264.714 172.737 245.076 164.494 223.371 182.011Z" fill="black"/>
<path d="M223.602 185.492C223.602 185.492 202.271 171.96 181.91 185.492C174.784 190.229 171.221 196.978 169.599 203.751C166.717 215.793 169.878 228.489 177.586 238.196L223.649 296.202C225.228 298.222 227.346 299.759 229.761 300.636C232.175 301.514 234.789 301.696 237.302 301.162C237.402 301.139 237.502 301.116 237.603 301.092C239.424 300.646 241.133 299.832 242.626 298.702C244.119 297.572 245.363 296.149 246.284 294.521L278.318 238.438C284.245 228.225 286.674 216.365 285.239 204.653C283.737 193.119 278.181 180.961 262.385 176.793C262.385 176.793 243.963 169.06 223.602 185.492Z" fill="#758E4F"/>
<path opacity="0.1" d="M224.432 208.696C224.432 208.696 214.054 202.112 204.148 208.696C201.072 210.771 198.925 213.956 198.158 217.579C197.495 220.484 197.5 223.501 198.173 226.403C198.846 229.305 200.17 232.018 202.044 234.338C202.044 234.338 228.614 265.527 231.098 264.972C231.146 264.961 231.195 264.95 231.244 264.938C233.034 264.51 251.053 234.456 251.053 234.456C253.937 229.487 255.119 223.717 254.42 218.018C253.689 212.407 250.986 206.492 243.301 204.464C243.301 204.464 234.338 200.701 224.432 208.696Z" fill="black"/>
<path opacity="0.1" d="M159.61 257.987L162.519 262.82L168.336 272.486L170.275 279.252L166.397 285.052L171.245 296.651L173.184 303.417L169.306 307.284L177.062 313.083" fill="black"/>
<path opacity="0.1" d="M302.138 215.457V223.19L297.29 235.755L294.381 242.522L299.229 251.221L301.168 257.021L308.925 259.921L311.833 264.754V276.353" fill="black"/>
<path opacity="0.1" d="M351.586 223.19L343.829 228.023C343.829 228.023 339.951 229.956 339.951 230.923V238.655" fill="black"/>
<path opacity="0.1" d="M316.682 196.125L318.62 205.791L316.682 212.557" fill="black"/>
<path opacity="0.1" d="M324.438 283.119L318.62 291.818L311.833 297.618V301.484L315.712 306.317V312.117L312.803 317.917" fill="black"/>
<path opacity="0.1" d="M269.172 118.797H259.476L251.719 125.563L239.115 132.329L233.297 137.162V139.096L220.693 145.862L216.815 152.628" fill="black"/>
<path opacity="0.1" d="M164.458 135.229L155.732 152.628L152.823 159.394L146.036 168.094C146.036 168.094 141.188 176.793 140.218 177.76C139.249 178.726 132.462 180.659 132.462 180.659L142.158 190.325" fill="black"/>
<path opacity="0.1" d="M125.675 201.924L123.736 214.49L125.675 222.223V235.755L119.858 260.887L125.675 267.653L132.462 276.353" fill="black"/>
<path opacity="0.1" d="M140.218 207.724L146.036 210.624L149.914 223.19L157.671 221.256L161.549 228.023" fill="black"/>
<path opacity="0.1" d="M246.872 333.382L262.385 331.449L269.172 324.683H278.868" fill="black"/>
<path opacity="0.1" d="M152.823 313.083L158.64 319.849L168.336 322.749L175.123 324.683L177.062 335.315" fill="black"/>
<path opacity="0.1" d="M267.233 280.219L274.02 275.386L276.929 267.653L282.746 266.687L285.655 257.021" fill="black"/>
<path d="M93.1065 37.342H109.341C114.466 37.342 119.382 39.3719 123.006 42.9851C126.63 46.5983 128.667 51.4988 128.667 56.6086V92.0596H73.7805V56.6087C73.7805 54.0785 74.2804 51.5732 75.2516 49.2356C76.2228 46.8981 77.6464 44.7742 79.4409 42.9851C81.2355 41.196 83.366 39.7769 85.7107 38.8086C88.0555 37.8404 90.5685 37.342 93.1065 37.342Z" fill="#2F2E41"/>
<path d="M109.773 341.366C109.773 341.366 108.047 352.263 105.171 353.984C102.294 355.705 120.129 359.719 120.129 359.719L123.006 342.513L109.773 341.366Z" fill="#FBBEBE"/>
<path d="M131.06 216.908L137.388 224.364L134.512 250.173L132.21 301.218C132.21 301.218 136.813 345.381 132.21 346.528C127.608 347.675 106.897 347.102 107.472 344.234C108.048 341.366 108.623 339.072 109.773 335.057C110.924 331.042 108.623 316.704 108.623 316.704L111.499 300.645L101.144 231.246L131.06 216.908Z" fill="#2F2E41"/>
<path d="M110.349 352.263C110.349 352.263 104.02 351.116 103.445 352.263C102.87 353.41 91.9389 365.455 90.213 365.455C88.487 365.455 75.8302 376.926 89.0623 377.499C102.294 378.073 124.156 367.749 124.156 367.749C124.156 367.749 120.939 353.154 121.109 353.856C121.28 354.558 110.349 355.131 110.349 352.263Z" fill="#2F2E41"/>
<path d="M103.445 325.88C103.445 325.88 119.554 343.66 120.129 345.381C120.704 347.102 129.334 345.381 129.334 345.381L132.786 333.91L129.909 329.895L113.801 316.704L103.445 325.88Z" fill="#FBBEBE"/>
<path d="M126.457 339.072L118.115 346.9C118.115 346.9 128.759 363.161 128.759 364.881C128.759 366.602 129.334 380.941 135.087 378.646C140.84 376.352 141.415 353.41 141.415 353.41C141.415 353.41 140.84 329.895 137.388 328.175C133.936 326.454 126.371 326.998 126.371 326.998C126.371 326.998 131.06 338.498 126.457 339.072Z" fill="#2F2E41"/>
<path d="M78.7068 165.862C78.7068 165.862 75.8302 175.039 75.2549 177.333C74.6796 179.627 71.2278 185.936 71.2278 195.686C71.2278 205.437 72.3784 216.907 71.2278 218.055C70.0771 219.202 51.6673 283.438 59.7216 290.321C67.7759 297.203 94.2401 320.145 95.966 323.013C97.692 325.88 98.2673 332.763 101.719 331.616C105.171 330.469 118.403 318.998 118.978 316.704C119.554 314.41 111.499 310.395 111.499 310.395C111.499 310.395 95.3907 286.88 91.3636 287.453C87.3364 288.027 87.9117 284.585 88.487 282.865C89.0623 281.144 90.2129 279.997 88.487 279.997C86.7611 279.997 87.9117 275.409 88.487 273.115C89.0623 270.82 102.294 239.849 102.294 239.849L137.388 224.364C137.388 224.364 135.662 182.495 123.006 171.024L120.129 164.142C120.129 164.142 87.9117 161.847 78.7068 165.862Z" fill="#2F2E41"/>
<path d="M93.0895 75.2426C93.0895 75.2426 95.966 95.3165 89.0623 96.4636C82.1586 97.6107 76.4055 97.0372 76.4055 97.6107C76.4055 98.1842 93.6648 115.964 93.6648 115.964L109.773 114.817L124.156 99.3313C124.156 99.3313 110.924 97.0372 110.924 89.0076C110.924 80.978 110.349 75.2426 110.349 75.2426H93.0895Z" fill="#FBBEBE"/>
<path opacity="0.1" d="M93.0895 75.2426C93.0895 75.2426 95.966 95.3165 89.0623 96.4636C82.1586 97.6107 76.4055 97.0372 76.4055 97.6107C76.4055 98.1842 93.6648 115.964 93.6648 115.964L109.773 114.817L124.156 99.3313C124.156 99.3313 110.924 97.0372 110.924 89.0076C110.924 80.978 110.349 75.2426 110.349 75.2426H93.0895Z" fill="black"/>
<path d="M102.007 83.5589C111.857 83.5589 119.841 75.5986 119.841 65.7791C119.841 55.9596 111.857 47.9993 102.007 47.9993C92.157 47.9993 84.1722 55.9596 84.1722 65.7791C84.1722 75.5986 92.157 83.5589 102.007 83.5589Z" fill="#FBBEBE"/>
<path d="M86.1858 94.743C86.1858 94.743 63.7487 97.6108 62.0228 105.067C60.2969 112.523 73.529 158.98 75.2549 162.995C76.9808 167.009 76.4055 169.877 76.4055 169.877C79.0087 167.936 81.9986 166.574 85.1741 165.881C88.3497 165.189 91.6371 165.182 94.8154 165.862C105.746 168.156 121.28 167.009 121.28 167.009C121.28 167.009 126.457 145.788 127.608 143.494C128.759 141.2 133.361 128.582 133.361 125.141C133.361 121.7 140.265 107.361 140.265 107.361C140.265 107.361 136.813 97.0372 124.156 97.6108C124.156 97.6108 118.635 95.1474 117.081 96.9526C115.527 98.7578 106.897 106.787 95.966 103.346C85.0351 99.9049 86.1858 94.743 86.1858 94.743Z" fill="#FF6584"/>
<path d="M68.3512 104.493H62.0228L58.5709 149.803C58.5709 149.803 71.2277 153.244 72.9536 150.95C74.6796 148.656 68.3512 104.493 68.3512 104.493Z" fill="#FF6584"/>
<path d="M129.334 104.493L140.265 107.361C140.265 107.361 148.319 136.612 148.894 137.185C149.47 137.759 150.045 141.2 150.045 141.2C150.045 141.2 150.045 141.773 151.196 143.494C152.346 145.215 154.072 144.068 152.922 146.362C151.771 148.656 150.045 147.509 151.196 149.803C152.346 152.097 151.771 158.406 151.771 158.406C151.771 158.406 148.894 147.509 138.539 150.377L131.635 119.405L129.334 104.493Z" fill="#FF6584"/>
<path d="M115.931 61.4549H88.2195L81.9458 47.0797H120.636L115.931 61.4549Z" fill="#2F2E41"/>
<path d="M84.5841 71.9736C85.3243 71.7597 85.4607 69.9911 84.8887 68.0233C84.3167 66.0554 83.253 64.6335 82.5127 64.8474C81.7725 65.0612 81.6362 66.8298 82.2081 68.7976C82.7801 70.7655 83.8439 72.1874 84.5841 71.9736Z" fill="#FFB9B9"/>
<path d="M122.075 68.7976C122.647 66.8298 122.511 65.0612 121.77 64.8474C121.03 64.6335 119.967 66.0554 119.395 68.0233C118.823 69.9911 118.959 71.7597 119.699 71.9735C120.439 72.1874 121.503 70.7655 122.075 68.7976Z" fill="#FFB9B9"/>
<path d="M117.363 144.594C123.082 144.594 127.719 139.972 127.719 134.271C127.719 128.569 123.082 123.947 117.363 123.947C111.644 123.947 107.007 128.569 107.007 134.271C107.007 139.972 111.644 144.594 117.363 144.594Z" fill="#3F3D56"/>
<path opacity="0.1" d="M117.363 144.594C123.082 144.594 127.719 139.972 127.719 134.271C127.719 128.569 123.082 123.947 117.363 123.947C111.644 123.947 107.007 128.569 107.007 134.271C107.007 139.972 111.644 144.594 117.363 144.594Z" fill="black"/>
<path d="M117.363 143.571C122.515 143.571 126.692 139.407 126.692 134.271C126.692 129.134 122.515 124.971 117.363 124.971C112.211 124.971 108.034 129.134 108.034 134.271C108.034 139.407 112.211 143.571 117.363 143.571Z" fill="#3F3D56"/>
<path opacity="0.1" d="M116.952 129.013C116.952 129.013 114.575 127.506 112.306 129.013C111.601 129.489 111.11 130.218 110.934 131.048C110.782 131.713 110.784 132.404 110.938 133.069C111.092 133.733 111.395 134.355 111.824 134.886L116.957 141.349C117.133 141.575 117.369 141.746 117.638 141.843C117.907 141.941 118.198 141.962 118.478 141.902L118.512 141.894C118.714 141.845 118.905 141.754 119.071 141.628C119.238 141.502 119.376 141.344 119.479 141.162L123.048 134.913C123.709 133.775 123.979 132.453 123.82 131.148C123.783 130.428 123.516 129.738 123.058 129.179C122.6 128.621 121.974 128.223 121.273 128.044C121.273 128.044 119.22 127.182 116.952 129.013Z" fill="black"/>
<path d="M116.976 129.377C116.976 129.377 114.746 127.963 112.618 129.377C111.957 129.823 111.496 130.507 111.331 131.286C111.189 131.91 111.19 132.558 111.334 133.181C111.479 133.805 111.763 134.388 112.166 134.886L116.981 140.949C117.146 141.161 117.367 141.321 117.62 141.413C117.872 141.505 118.145 141.524 118.408 141.468L118.439 141.46C118.63 141.414 118.808 141.329 118.964 141.211C119.12 141.093 119.25 140.944 119.347 140.774L122.695 134.912C123.315 133.844 123.569 132.604 123.418 131.38C123.384 130.704 123.134 130.057 122.704 129.533C122.274 129.009 121.687 128.636 121.03 128.468C121.03 128.468 119.104 127.66 116.976 129.377Z" fill="#758E4F"/>
<path opacity="0.1" d="M117.063 131.803C116.743 131.61 116.376 131.508 116.002 131.508C115.629 131.508 115.262 131.61 114.942 131.803C114.621 132.02 114.396 132.353 114.316 132.731C114.247 133.035 114.247 133.35 114.318 133.654C114.388 133.957 114.526 134.24 114.722 134.483C114.722 134.483 117.5 137.743 117.759 137.685L117.775 137.681C117.962 137.637 119.845 134.495 119.845 134.495C120.146 133.976 120.27 133.373 120.197 132.777C120.18 132.448 120.058 132.133 119.849 131.878C119.64 131.624 119.355 131.442 119.035 131.36C118.696 131.254 118.335 131.239 117.989 131.317C117.643 131.395 117.323 131.562 117.063 131.803Z" fill="black"/>
<path d="M108.158 150.33C113.877 150.33 118.514 145.708 118.514 140.006C118.514 134.304 113.877 129.682 108.158 129.682C102.439 129.682 97.8025 134.304 97.8025 140.006C97.8025 145.708 102.439 150.33 108.158 150.33Z" fill="#3F3D56"/>
<path opacity="0.1" d="M108.158 150.33C113.877 150.33 118.514 145.708 118.514 140.006C118.514 134.304 113.877 129.682 108.158 129.682C102.439 129.682 97.8025 134.304 97.8025 140.006C97.8025 145.708 102.439 150.33 108.158 150.33Z" fill="black"/>
<path d="M108.158 149.306C113.31 149.306 117.487 145.142 117.487 140.006C117.487 134.87 113.31 130.706 108.158 130.706C103.006 130.706 98.8295 134.87 98.8295 140.006C98.8295 145.142 103.006 149.306 108.158 149.306Z" fill="#3F3D56"/>
<path opacity="0.1" d="M107.747 134.749C107.747 134.749 105.37 133.241 103.101 134.749C102.397 135.224 101.905 135.954 101.729 136.783C101.578 137.449 101.579 138.139 101.733 138.804C101.887 139.469 102.19 140.09 102.619 140.621L107.752 147.085C107.928 147.31 108.164 147.481 108.433 147.579C108.702 147.677 108.993 147.697 109.273 147.637L109.307 147.63C109.51 147.58 109.7 147.489 109.866 147.363C110.033 147.237 110.172 147.079 110.274 146.898L113.844 140.648C114.504 139.51 114.775 138.189 114.615 136.884C114.578 136.163 114.311 135.473 113.853 134.915C113.395 134.356 112.769 133.958 112.068 133.78C112.068 133.78 110.015 132.918 107.747 134.749Z" fill="black"/>
<path d="M107.771 135.113C107.771 135.113 105.541 133.698 103.413 135.113C102.752 135.559 102.291 136.243 102.126 137.021C101.984 137.645 101.985 138.293 102.129 138.917C102.274 139.54 102.558 140.123 102.961 140.622L107.776 146.685C107.941 146.896 108.162 147.057 108.415 147.148C108.667 147.24 108.94 147.259 109.203 147.203L109.234 147.196C109.425 147.149 109.603 147.064 109.759 146.946C109.915 146.828 110.045 146.679 110.142 146.509L113.49 140.647C114.11 139.579 114.364 138.34 114.213 137.116C114.179 136.44 113.929 135.792 113.499 135.268C113.069 134.744 112.482 134.371 111.825 134.203C111.825 134.203 109.899 133.395 107.771 135.113Z" fill="#758E4F"/>
<path opacity="0.1" d="M107.858 137.538C107.538 137.345 107.171 137.243 106.797 137.243C106.424 137.243 106.057 137.345 105.737 137.538C105.416 137.755 105.191 138.088 105.111 138.467C105.042 138.77 105.042 139.086 105.113 139.389C105.183 139.692 105.322 139.976 105.517 140.218C105.517 140.218 108.295 143.478 108.554 143.42L108.57 143.417C108.757 143.372 110.64 140.231 110.64 140.231C110.942 139.711 111.065 139.108 110.992 138.513C110.975 138.184 110.853 137.869 110.644 137.614C110.435 137.359 110.15 137.177 109.83 137.096C109.491 136.99 109.13 136.975 108.784 137.053C108.438 137.13 108.118 137.298 107.858 137.538Z" fill="black"/>
<path d="M100.261 114.196C100.009 113.781 99.1283 113.792 99.1283 113.792C98.3262 114.98 96.3981 113.718 96.3981 113.718C94.966 114.356 94.0923 112.321 94.0923 112.321C92.1654 112.034 92.4631 110.016 92.4631 110.016C91.5044 109.824 91.7734 108.096 91.7734 108.096C91.7734 108.096 92.3053 107.661 92.0436 107.343C91.8874 106.971 91.8314 106.565 91.8813 106.164C89.0259 105.298 85.9604 105.42 83.1834 106.511C80.4064 107.601 78.0813 109.597 76.5861 112.172C75.0909 114.747 74.5137 117.751 74.9483 120.695C75.3829 123.639 76.8038 126.35 78.9798 128.387C81.1558 130.423 83.959 131.666 86.9335 131.913C89.908 132.16 92.8788 131.397 95.3627 129.747C97.8467 128.097 99.6977 125.658 100.615 122.826C101.532 119.994 101.461 116.937 100.414 114.15C100.346 114.227 100.293 114.248 100.261 114.196Z" fill="#3F3D56"/>
<path opacity="0.1" d="M100.261 114.196C100.009 113.781 99.1283 113.792 99.1283 113.792C98.3262 114.98 96.3981 113.718 96.3981 113.718C94.966 114.356 94.0923 112.321 94.0923 112.321C92.1654 112.034 92.4631 110.016 92.4631 110.016C91.5044 109.824 91.7734 108.096 91.7734 108.096C91.7734 108.096 92.3053 107.661 92.0436 107.343C91.8874 106.971 91.8314 106.565 91.8813 106.164C89.0259 105.298 85.9604 105.42 83.1834 106.511C80.4064 107.601 78.0813 109.597 76.5861 112.172C75.0909 114.747 74.5137 117.751 74.9483 120.695C75.3829 123.639 76.8038 126.35 78.9798 128.387C81.1558 130.423 83.959 131.666 86.9335 131.913C89.908 132.16 92.8788 131.397 95.3627 129.747C97.8467 128.097 99.6977 125.658 100.615 122.826C101.532 119.994 101.461 116.937 100.414 114.15C100.346 114.227 100.293 114.248 100.261 114.196Z" fill="black"/>
<path d="M99.4773 114.144C99.2374 113.749 98.3995 113.759 98.3995 113.759C97.6367 114.889 95.803 113.689 95.803 113.689C94.441 114.296 93.6101 112.361 93.6101 112.361C91.7775 112.088 92.0606 110.169 92.0606 110.169C91.1489 109.986 91.4047 108.343 91.4047 108.343C91.4047 108.343 91.9106 107.929 91.6616 107.627C91.5131 107.273 91.4599 106.886 91.5073 106.505C88.7917 105.681 85.8763 105.797 83.2352 106.835C80.5941 107.872 78.3828 109.77 76.9608 112.219C75.5388 114.668 74.9899 117.525 75.4032 120.325C75.8165 123.125 77.1678 125.703 79.2373 127.64C81.3068 129.577 83.9728 130.759 86.8017 130.994C89.6306 131.229 92.456 130.502 94.8183 128.933C97.1807 127.364 98.9411 125.045 99.8133 122.352C100.685 119.658 100.618 116.75 99.622 114.1C99.5574 114.173 99.5073 114.193 99.4773 114.144Z" fill="#3F3D56"/>
<path d="M86.3345 113.379C86.3345 113.379 84.1645 112.002 82.093 113.379C81.4498 113.813 81.0007 114.479 80.8405 115.237C80.7019 115.844 80.7029 116.475 80.8436 117.082C80.9844 117.689 81.2611 118.256 81.6531 118.741L86.3393 124.642C86.5 124.848 86.7155 125.004 86.9612 125.093C87.2068 125.183 87.4727 125.201 87.7284 125.147L87.759 125.14C87.9442 125.094 88.1181 125.012 88.27 124.897C88.4218 124.782 88.5485 124.637 88.6421 124.471L91.9012 118.766C92.5042 117.727 92.7513 116.52 92.6053 115.328C92.5717 114.671 92.328 114.041 91.9097 113.531C91.4913 113.021 90.9204 112.657 90.2802 112.494C90.2802 112.494 88.406 111.707 86.3345 113.379Z" fill="#758E4F"/>
<path opacity="0.1" d="M86.3345 113.379C86.3345 113.379 84.1645 112.002 82.093 113.379C81.4498 113.813 81.0007 114.479 80.8405 115.237C80.7019 115.844 80.7029 116.475 80.8436 117.082C80.9844 117.689 81.2611 118.256 81.6531 118.741L86.3393 124.642C86.5 124.848 86.7155 125.004 86.9612 125.093C87.2068 125.183 87.4727 125.201 87.7284 125.147L87.759 125.14C87.9442 125.094 88.1181 125.012 88.27 124.897C88.4218 124.782 88.5485 124.637 88.6421 124.471L91.9012 118.766C92.5042 117.727 92.7513 116.52 92.6053 115.328C92.5717 114.671 92.328 114.041 91.9097 113.531C91.4913 113.021 90.9204 112.657 90.2802 112.494C90.2802 112.494 88.406 111.707 86.3345 113.379Z" fill="black"/>
<path d="M86.3566 113.711C86.3566 113.711 84.3209 112.42 82.3777 113.711C81.7743 114.118 81.3531 114.743 81.2028 115.454C81.0727 116.024 81.0737 116.615 81.2057 117.185C81.3377 117.754 81.5973 118.286 81.965 118.741L86.361 124.277C86.5118 124.47 86.7139 124.616 86.9444 124.7C87.1748 124.784 87.4242 124.801 87.6641 124.75L87.6928 124.744C87.8665 124.701 88.0297 124.623 88.1721 124.516C88.3146 124.408 88.4334 124.272 88.5213 124.117L91.5785 118.764C92.1441 117.79 92.376 116.658 92.239 115.54C92.2075 114.923 91.9789 114.332 91.5864 113.853C91.194 113.375 90.6584 113.034 90.0579 112.881C90.0579 112.881 88.2997 112.143 86.3566 113.711Z" fill="#758E4F"/>
<path opacity="0.1" d="M86.4359 115.926C86.144 115.75 85.8093 115.656 85.468 115.656C85.1267 115.656 84.792 115.75 84.5001 115.926C84.2065 116.124 84.0016 116.428 83.9285 116.774C83.8652 117.051 83.8657 117.339 83.9299 117.616C83.9941 117.893 84.1204 118.152 84.2993 118.373C84.2993 118.373 86.835 121.349 87.072 121.297L87.086 121.293C87.7666 120.357 88.3976 119.386 88.9765 118.384C89.2517 117.91 89.3645 117.359 89.2978 116.816C89.2825 116.515 89.1712 116.228 88.9803 115.995C88.7894 115.762 88.5288 115.596 88.2367 115.522C87.9274 115.425 87.598 115.412 87.2818 115.482C86.9656 115.553 86.6738 115.706 86.4359 115.926Z" fill="black"/>
<path opacity="0.1" d="M80.2498 120.63L80.5271 121.091L81.0822 122.013L81.2675 122.659L80.897 123.213L81.3601 124.32L81.5448 124.965L81.1749 125.335L81.9153 125.888" fill="black"/>
<path opacity="0.1" d="M93.8519 116.571V117.309L93.3893 118.509L93.1115 119.154L93.574 119.984L93.7592 120.538L94.4997 120.814L94.777 121.276V122.383" fill="black"/>
<path opacity="0.1" d="M98.5708 117.309L97.8306 117.77C97.8306 117.77 97.4604 117.955 97.4604 118.047V118.785" fill="black"/>
<path opacity="0.1" d="M95.2395 114.726L95.4248 115.648L95.2395 116.294" fill="black"/>
<path opacity="0.1" d="M95.9798 123.029L95.4247 123.859L94.7769 124.412V124.781L95.1474 125.243V125.796L94.8695 126.349" fill="black"/>
<path opacity="0.1" d="M90.7054 107.346H89.7803L89.0399 107.992L87.8369 108.638L87.2817 109.099V109.284L86.0788 109.929L85.7089 110.575" fill="black"/>
<path opacity="0.1" d="M80.7122 108.914L79.8794 110.575L79.6019 111.221L78.9541 112.051C78.9541 112.051 78.4915 112.881 78.3989 112.973C78.1625 113.091 77.9144 113.184 77.6587 113.25L78.584 114.173" fill="black"/>
<path opacity="0.1" d="M77.0109 115.28L76.8256 116.479L77.0109 117.217V118.509L76.4557 120.907L77.0109 121.552L77.6587 122.383" fill="black"/>
<path opacity="0.1" d="M78.399 115.833L78.9542 116.11L79.3241 117.309L80.0646 117.125L80.4345 117.77" fill="black"/>
<path opacity="0.1" d="M88.5774 127.825L90.0577 127.641L90.7055 126.995H91.6311" fill="black"/>
<path opacity="0.1" d="M79.6021 125.888L80.1572 126.534L81.0823 126.811L81.7301 126.995L81.9154 128.01" fill="black"/>
<path opacity="0.1" d="M90.5208 122.752L91.1685 122.291L91.4459 121.552L92.001 121.46L92.2789 120.538" fill="black"/>
<path d="M60.2969 145.215L58.5709 149.803C58.5709 149.803 57.4203 164.715 64.324 164.142C71.2277 163.568 75.2549 154.965 75.2549 154.965C75.2549 154.965 71.2277 144.068 66.6253 145.215C62.0228 146.362 60.2969 145.215 60.2969 145.215Z" fill="#FF6584"/>
<path d="M66.05 148.082C66.05 148.082 62.5982 158.406 66.6253 158.406C70.6525 158.406 78.1315 152.097 78.7068 146.935C79.2821 141.773 89.6377 122.273 82.1587 123.994C74.6796 125.714 71.2278 140.053 71.2278 140.053L66.05 148.082Z" fill="#FBBEBE"/>
<path d="M148.319 148.656L151.913 154.644C151.913 154.644 153.497 165.862 145.443 165.862C137.388 165.862 125.882 154.965 125.882 154.965C125.882 154.965 120.129 152.671 116.677 153.244C113.225 153.818 94.2401 153.244 102.294 143.494C110.349 133.744 124.156 143.494 124.156 143.494L138.539 150.377L146.018 146.362L148.319 148.656Z" fill="#FBBEBE"/>
<path d="M143.429 140.913L137.676 150.09C137.676 150.09 150.908 151.81 152.059 154.678C153.209 157.546 146.881 139.766 146.881 139.766L143.429 140.913Z" fill="#FF6584"/>
</g>
<defs>
<clipPath id="clip0_330_4">
<rect width="466" height="388.333" fill="white" transform="translate(0 0.0164795)"/>
</clipPath>
</defs>
</svg>
