<svg width="462" height="387" viewBox="0 0 462 387" fill="none" xmlns="http://www.w3.org/2000/svg">
<path d="M123.052 235.27C121.808 235.27 120.551 235.25 119.318 235.212L119.346 234.318C121.117 234.373 122.924 234.388 124.704 234.364L124.716 235.258C124.162 235.266 123.607 235.27 123.052 235.27ZM130.111 235.062L130.058 234.169C131.832 234.065 133.628 233.918 135.398 233.733L135.491 234.623C133.709 234.809 131.899 234.957 130.111 235.062ZM113.928 234.923C112.139 234.786 110.332 234.607 108.556 234.39L108.665 233.502C110.428 233.717 112.221 233.895 113.996 234.031L113.928 234.923ZM140.846 233.939L140.711 233.055C142.473 232.788 144.249 232.479 145.988 232.134L146.163 233.011C144.41 233.358 142.621 233.671 140.846 233.939ZM103.214 233.612C101.448 233.313 99.6641 232.97 97.9136 232.591L98.1038 231.716C99.8409 232.093 101.611 232.434 103.364 232.73L103.214 233.612ZM151.432 231.84L151.217 230.972C152.947 230.545 154.686 230.073 156.387 229.57L156.642 230.428C154.928 230.935 153.175 231.41 151.432 231.84ZM92.666 231.327C90.9328 230.867 89.1888 230.361 87.4821 229.823L87.7522 228.97C89.446 229.504 91.1767 230.006 92.8963 230.462L92.666 231.327ZM161.781 228.777L161.487 227.932C163.165 227.35 164.854 226.721 166.505 226.061L166.838 226.892C165.174 227.556 163.473 228.19 161.781 228.777H161.781ZM82.3599 228.076C80.6767 227.459 78.983 226.793 77.3262 226.097L77.6743 225.272C79.3183 225.963 80.9989 226.624 82.6695 227.237L82.3599 228.076ZM171.792 224.781L171.421 223.967C173.033 223.236 174.653 222.456 176.237 221.648L176.645 222.445C175.049 223.259 173.416 224.044 171.792 224.781H171.792ZM181.385 219.888L180.942 219.112C182.488 218.231 184.031 217.306 185.528 216.362L186.007 217.117C184.498 218.069 182.944 219.002 181.386 219.888H181.385ZM190.497 214.137L189.984 213.404C191.44 212.39 192.893 211.327 194.302 210.246L194.848 210.956C193.428 212.045 191.964 213.115 190.497 214.137ZM53.8325 212.878C52.3853 211.829 50.9396 210.73 49.5352 209.612L50.0947 208.913C51.4883 210.023 52.9231 211.113 54.3592 212.153L53.8325 212.878ZM199.05 207.579L198.472 206.895C199.829 205.753 201.179 204.563 202.486 203.357L203.095 204.014C201.778 205.229 200.418 206.428 199.05 207.579H199.05ZM45.3925 206.154C44.0447 204.977 42.7056 203.752 41.4126 202.514L42.0335 201.868C43.3168 203.097 44.6456 204.313 45.9831 205.482L45.3925 206.154ZM206.974 200.268L206.335 199.64C207.586 198.375 208.823 197.066 210.012 195.75L210.678 196.349C209.481 197.675 208.234 198.994 206.974 200.268ZM37.6039 198.697C36.3673 197.4 35.146 196.059 33.9739 194.712L34.6512 194.126C35.8143 195.463 37.0262 196.793 38.2537 198.08L37.6039 198.697ZM214.201 192.265L213.508 191.697C214.638 190.325 215.751 188.91 216.816 187.489L217.534 188.024C216.461 189.456 215.34 190.883 214.201 192.265L214.201 192.265ZM30.5301 190.567C29.4196 189.167 28.3261 187.722 27.2799 186.271L28.0076 185.749C29.0459 187.188 30.131 188.622 31.2333 190.012L30.5301 190.567ZM220.67 183.635L219.928 183.133C220.928 181.664 221.907 180.152 222.839 178.639L223.603 179.107C222.664 180.632 221.677 182.156 220.67 183.635L220.67 183.635ZM24.2305 181.833C23.2535 180.339 22.2973 178.801 21.3881 177.262L22.1604 176.808C23.0628 178.335 24.0118 179.861 24.9814 181.344L24.2305 181.833ZM226.326 174.448L225.541 174.016C226.402 172.462 227.238 170.866 228.027 169.272L228.831 169.668C228.036 171.274 227.193 172.882 226.326 174.448ZM231.114 164.778L230.293 164.418C231.007 162.791 231.693 161.123 232.332 159.463L233.169 159.784C232.526 161.457 231.834 163.137 231.114 164.778ZM14.1628 162.847C13.4754 161.201 12.8171 159.518 12.2064 157.842L13.0492 157.536C13.6551 159.199 14.3084 160.87 14.9903 162.503L14.1628 162.847ZM234.992 154.7L234.14 154.418C234.7 152.736 235.228 151.017 235.71 149.308L236.573 149.55C236.087 151.272 235.555 153.005 234.992 154.7ZM10.4791 152.739C9.94564 151.035 9.44432 149.293 8.9892 147.562L9.85654 147.335C10.3082 149.053 10.8058 150.781 11.3351 152.473L10.4791 152.739ZM237.914 144.333L237.041 144.13C237.442 142.406 237.809 140.645 238.132 138.898L239.013 139.059C238.689 140.821 238.319 142.595 237.914 144.333V144.333ZM7.74053 142.323C7.36662 140.575 7.02818 138.795 6.73483 137.031L7.61925 136.884C7.91062 138.636 8.24644 140.402 8.6175 142.136L7.74053 142.323ZM239.868 133.742L238.979 133.621C239.221 131.869 239.424 130.082 239.585 128.311L240.478 128.391C240.316 130.177 240.111 131.977 239.868 133.742V133.742ZM5.97345 131.7C5.76198 129.929 5.58838 128.125 5.45725 126.339L6.35173 126.274C6.48155 128.047 6.65406 129.836 6.86399 131.594L5.97345 131.7ZM240.843 123.018L239.947 122.978C240.027 121.206 240.068 119.408 240.068 117.635H240.964C240.964 119.421 240.924 121.233 240.843 123.018ZM5.18557 120.96C5.15493 119.863 5.13939 118.744 5.13916 117.635C5.13916 116.946 5.14507 116.259 5.15689 115.574L6.05357 115.589C6.04175 116.27 6.03583 116.952 6.03583 117.635C6.03605 118.736 6.0516 119.847 6.08181 120.936L5.18557 120.96ZM6.26635 110.249L5.37143 110.193C5.4833 108.406 5.63785 106.6 5.83027 104.827L6.7217 104.923C6.53058 106.683 6.37755 108.475 6.26634 110.249H6.26635ZM239.489 104.791C239.31 103.028 239.063 102.168 238.803 100.412L239.69 100.281C239.952 102.051 240.177 103.401 240.358 105.178L239.489 104.791ZM7.4198 99.6246L6.53363 99.4878C6.80837 97.7182 7.12755 95.9345 7.48241 94.1858L8.36115 94.3631C8.00912 96.0985 7.69235 97.8686 7.4198 99.6246ZM237.898 95.1448C237.556 93.3998 237.171 91.6432 236.751 89.9239L237.622 89.7125C238.045 91.4449 238.434 93.215 238.778 94.9731L237.898 95.1448ZM9.54371 89.1506L8.67396 88.9331C9.10938 87.2005 9.59165 85.4535 10.1074 83.7404L10.966 83.9977C10.4544 85.6977 9.97585 87.4314 9.54371 89.1506ZM235.364 84.7612C234.864 83.0579 234.318 81.3446 233.74 79.6681L234.588 79.3772C235.17 81.0666 235.721 82.7934 236.225 84.5096L235.364 84.7612ZM12.6304 78.9018L11.7845 78.6052C12.3804 76.9141 13.0238 75.215 13.6967 73.555L14.5282 73.8904C13.8603 75.5376 13.2217 77.2238 12.6304 78.9018ZM231.882 74.655C231.228 73.0087 230.527 71.3565 229.8 69.7441L230.618 69.3768C231.351 71.0016 232.057 72.6665 232.716 74.3252L231.882 74.655ZM16.6549 68.9734L15.8401 68.5999C16.589 66.9728 17.3861 65.3412 18.2092 63.7504L19.0061 64.1605C18.1891 65.7393 17.3981 67.3585 16.6549 68.9734ZM227.494 64.9319C226.691 63.3527 225.841 61.7702 224.967 60.2289L225.747 59.7882C226.628 61.3414 227.485 62.936 228.293 64.5274L227.494 64.9319ZM21.5763 59.4619L20.7992 59.0155C21.6937 57.466 22.637 55.9149 23.6031 54.4058L24.3588 54.8871C23.4001 56.3849 22.4638 57.9241 21.5763 59.4619ZM222.226 55.6443C221.278 54.1395 220.286 52.6404 219.277 51.1885L220.013 50.6788C221.031 52.1418 222.031 53.6523 222.985 55.1686L222.226 55.6443ZM27.3478 50.4453L26.6149 49.9299C27.6486 48.4673 28.7294 47.0094 29.8279 45.5968L30.5363 46.145C29.4463 47.5471 28.3734 48.9938 27.3478 50.4453ZM216.126 46.8705C215.046 45.4586 213.921 44.0549 212.781 42.6987L213.468 42.1241C214.616 43.4908 215.75 44.905 216.839 46.3276L216.126 46.8705ZM33.9174 41.9957L33.2349 41.4156C34.3949 40.0563 35.604 38.7033 36.8283 37.3942L37.4838 38.0044C36.2688 39.3037 35.0689 40.6466 33.9174 41.9957ZM209.249 38.6821C208.044 37.3741 206.795 36.0777 205.535 34.8294L206.168 34.1947C207.436 35.4529 208.695 36.7589 209.909 38.0767L209.249 38.6821ZM41.2274 34.1807L40.6005 33.5412C41.8826 32.2898 43.2095 31.0526 44.5438 29.864L45.141 30.5315C43.8167 31.7108 42.5 32.9387 41.2274 34.1807ZM201.65 31.1482C200.33 29.9538 198.967 28.7758 197.6 27.6469L198.171 26.9576C199.549 28.095 200.923 29.282 202.253 30.4856L201.65 31.1482ZM49.2161 27.0637L48.65 26.3701C50.0368 25.2434 51.47 24.1322 52.91 23.0673L53.4442 23.7858C52.0149 24.8428 50.5924 25.9455 49.2161 27.0637ZM57.8161 20.7046L57.3157 19.9625C58.7999 18.9662 60.3279 17.9906 61.8575 17.0622L62.3234 17.8266C60.8056 18.7478 59.2892 19.7161 57.8161 20.7046ZM66.9567 15.1577L66.5263 14.3728C68.0966 13.5156 69.7067 12.6839 71.3117 11.9005L71.7058 12.7042C70.113 13.4815 68.5151 14.3068 66.9567 15.1577ZM175.172 13.0851C173.576 12.2921 171.942 11.526 170.314 10.8081L170.677 9.98998C172.317 10.7133 173.964 11.4854 175.572 12.2845L175.172 13.0851ZM76.5609 10.4711L76.2045 9.65035C77.8455 8.94077 79.5241 8.26024 81.1936 7.62754L81.5119 8.464C79.8551 9.0917 78.1894 9.76699 76.5609 10.4711ZM165.355 8.75601C163.695 8.11371 161.995 7.50087 160.304 6.93478L160.589 6.08652C162.294 6.65719 164.006 7.27461 165.679 7.92216L165.355 8.75601ZM86.5627 6.68211L86.2834 5.8321C87.9874 5.27474 89.726 4.74993 91.4506 4.27273L91.6903 5.13453C89.9788 5.60824 88.2536 6.1289 86.5627 6.68211ZM155.187 5.35205C153.477 4.86568 151.732 4.41272 150.002 4.00585L150.208 3.13531C151.952 3.54524 153.709 4.00169 155.433 4.49157L155.187 5.35205ZM96.8843 3.82436L96.6846 2.95229C98.4316 2.55415 100.211 2.19139 101.974 1.87427L102.133 2.75442C100.384 3.06935 98.6179 3.42927 96.8843 3.82436ZM144.761 2.89987C143.015 2.57293 141.237 2.28202 139.475 2.03523L139.599 1.14941C141.375 1.39816 143.167 1.69125 144.927 2.0206L144.761 2.89987ZM107.426 1.92648L107.307 1.03978C109.082 0.803473 110.887 0.604728 112.672 0.44967L112.75 1.34073C110.979 1.49492 109.187 1.69191 107.426 1.92648ZM134.154 1.41324C132.388 1.24726 130.59 1.11928 128.81 1.03345L128.854 0.13978C130.647 0.226485 132.458 0.355342 134.238 0.522652L134.154 1.41324ZM118.097 0.997629L118.059 0.103961C119.707 0.0353842 121.387 0.000438335 123.052 0L123.458 0.000657756L123.455 0.895219L123.052 0.894562C121.399 0.894973 119.732 0.9297 118.097 0.997619V0.997629Z" fill="#3F3D56"/>
<path d="M267.317 42.1366V332.064C267.313 335.518 265.936 338.829 263.487 341.27C261.039 343.711 257.719 345.083 254.257 345.084H136.277C134.562 345.087 132.863 344.753 131.278 344.1C129.692 343.446 128.252 342.488 127.039 341.278C125.825 340.069 124.863 338.632 124.208 337.051C123.552 335.47 123.215 333.775 123.217 332.064V42.1366C123.217 40.4255 123.554 38.7312 124.211 37.1503C124.867 35.5695 125.829 34.1331 127.042 32.9232C128.255 31.7133 129.694 30.7535 131.279 30.0988C132.864 29.4441 134.562 29.1072 136.277 29.1073H153.932V31.3661C153.932 34.2112 155.065 36.9401 157.081 38.9523C159.097 40.9646 161.832 42.0955 164.684 42.0963H224.689C226.985 42.1012 229.22 41.3671 231.064 40.0031C231.437 39.7326 231.791 39.4366 232.122 39.1174C233.173 38.1169 234.008 36.9139 234.579 35.5815C235.149 34.249 235.442 32.8149 235.44 31.3661V29.1073H254.257C255.972 29.1068 257.671 29.4434 259.255 30.098C260.84 30.7526 262.28 31.7123 263.493 32.9223C264.706 34.1323 265.668 35.5689 266.324 37.1499C266.98 38.7309 267.317 40.4254 267.317 42.1366Z" fill="#3F3D56"/>
<path d="M250.068 133.623H140.466V216.818H250.068V133.623Z" fill="#758E4F"/>
<path d="M82.7502 119.606C92.5086 119.815 100.271 126.87 100.271 126.87C100.271 126.87 92.2125 133.586 82.4541 133.377C72.6957 133.169 64.933 126.114 64.933 126.114C64.933 126.114 72.9918 119.397 82.7502 119.606Z" fill="#758E4F"/>
<path d="M33.69 86.3738C42.5063 90.5524 52.6158 87.7189 52.6158 87.7189C52.6158 87.7189 48.4312 78.1104 39.6149 73.9319C30.7986 69.7533 20.6891 72.5868 20.6891 72.5868C20.6891 72.5868 24.8737 82.1952 33.69 86.3738Z" fill="#758E4F"/>
<path d="M34.586 82.2214C44.3061 81.3352 52.8142 87.4755 52.8142 87.4755C52.8142 87.4755 45.5627 95.0527 35.8426 95.939C26.1224 96.8252 17.6144 90.6849 17.6144 90.6849C17.6144 90.6849 24.8658 83.1077 34.586 82.2214Z" fill="#3F3D56"/>
<path d="M70.2172 83.9003C69.2855 93.5935 75.4023 102.109 75.4023 102.109C75.4023 102.109 83.0297 94.9084 83.9613 85.2152C84.893 75.522 78.7762 67.0067 78.7762 67.0067C78.7762 67.0067 71.1488 74.2071 70.2172 83.9003Z" fill="#3F3D56"/>
<path d="M115.994 143.348C110.896 151.652 112.65 161.981 112.65 161.981C112.65 161.981 122.67 158.847 127.768 150.543C132.866 142.24 131.112 131.911 131.112 131.911C131.112 131.911 121.092 135.045 115.994 143.348Z" fill="#3F3D56"/>
<path d="M101.204 233.631L101.947 233.13C99.3277 229.339 97.8977 224.856 97.8384 220.252C97.8592 213.517 101.175 207.288 104.382 201.263C104.977 200.145 105.57 199.031 106.141 197.917C108.537 193.375 110.446 188.593 111.837 183.652C116.811 165.21 111.914 143.453 98.7368 125.451C88.2836 111.17 72.7011 98.6815 51.0992 87.2728L50.6798 88.0634C72.1586 99.4071 87.6414 111.809 98.0127 125.978C111.031 143.764 115.875 165.237 110.971 183.419C109.596 188.3 107.71 193.023 105.343 197.51C104.774 198.619 104.183 199.73 103.59 200.844C100.332 206.964 96.9632 213.293 96.9417 220.25C97.001 225.033 98.4844 229.691 101.204 233.631Z" fill="#3F3D56"/>
<path d="M8.51853 88.4482C13.2231 88.4482 17.0369 84.6434 17.0369 79.9499C17.0369 75.2564 13.2231 71.4515 8.51853 71.4515C3.81394 71.4515 0.00012207 75.2564 0.00012207 79.9499C0.00012207 84.6434 3.81394 88.4482 8.51853 88.4482Z" fill="#3F3D56"/>
<path d="M128.432 217.898L74.9589 213.452V135.21L128.432 132.543V217.898Z" fill="#758E4F"/>
<path d="M262.102 217.898L315.575 213.452V135.21L262.102 132.543V217.898Z" fill="#758E4F"/>
<path d="M213.854 164.85C212.263 163.479 210.302 162.606 208.217 162.342C206.131 162.077 204.014 162.432 202.13 163.363C200.494 164.152 198.733 164.655 196.926 164.848C196.881 160.943 197.6 157.066 199.042 153.435L199.278 152.826H196.135L196.045 153.155C195.695 154.439 195.419 155.742 195.219 157.058C195.049 156.488 194.829 155.934 194.561 155.402C192.357 151.042 187.263 149.258 187.048 149.185L186.613 149.036L186.475 149.473C186.406 149.69 184.815 154.836 187.02 159.196C188.598 162.318 191.657 164.119 193.346 164.917C191.208 164.78 189.118 164.222 187.196 163.276C185.998 162.66 184.65 162.393 183.307 162.506C181.964 162.619 180.68 163.108 179.602 163.915C173.734 168.364 170.368 174.885 170.368 181.806C170.368 190.899 176.271 199.225 185.405 203.019C186.229 203.36 187.113 203.535 188.005 203.534C189.243 203.534 190.459 203.202 191.525 202.571C192.94 201.749 194.549 201.315 196.187 201.312C197.825 201.308 199.435 201.736 200.854 202.552C201.771 203.092 202.802 203.412 203.865 203.487C204.928 203.562 205.994 203.389 206.978 202.983C216.059 199.174 221.927 190.861 221.927 181.806C221.927 175.325 219.06 169.303 213.854 164.85ZM196.821 153.721H197.975C196.677 157.189 196.016 160.862 196.022 164.564H195.816C195.538 160.919 195.878 157.253 196.821 153.721ZM187.82 158.794C186.147 155.483 186.881 151.538 187.205 150.206C188.471 150.736 192.084 152.488 193.761 155.805C195.434 159.115 194.7 163.059 194.376 164.391C193.109 163.86 189.493 162.103 187.82 158.794ZM206.631 202.158C205.775 202.511 204.849 202.661 203.925 202.595C203.001 202.53 202.106 202.251 201.308 201.781C199.751 200.884 197.983 200.413 196.185 200.417C194.386 200.421 192.62 200.899 191.067 201.802C190.271 202.274 189.377 202.555 188.454 202.623C187.532 202.691 186.606 202.544 185.75 202.194C176.951 198.539 171.265 190.536 171.265 181.806C171.265 175.167 174.502 168.905 180.144 164.628C181.227 163.812 182.547 163.372 183.904 163.375C184.906 163.375 185.894 163.613 186.785 164.071C189.241 165.24 191.925 165.854 194.646 165.871C197.368 165.887 200.059 165.304 202.529 164.164C204.255 163.312 206.195 162.987 208.106 163.23C210.017 163.472 211.813 164.272 213.27 165.529C218.274 169.809 221.03 175.59 221.03 181.806C221.03 190.501 215.378 198.489 206.631 202.158Z" fill="white"/>
<path d="M101.549 156.396V155.346H101.967V152.075C101.969 151.832 101.903 151.594 101.778 151.386C101.653 151.178 101.474 151.008 101.258 150.895C99.4079 149.932 97.4193 149.933 95.3477 150.9C95.1191 151.008 94.9259 151.179 94.7908 151.393C94.6557 151.606 94.5842 151.854 94.5846 152.106V155.346H95.0029V156.297C93.4631 156.727 92.1074 157.65 91.1436 158.923C90.1799 160.196 89.6615 161.75 89.6678 163.345V170.424L90.4646 170.689L89.6678 171.219V173.346L90.4646 173.611L89.6678 174.141V176.268L90.4646 176.533L89.6678 177.063V193.265C89.6692 194.529 90.173 195.74 91.0687 196.634C91.9644 197.528 93.1789 198.03 94.4456 198.032H101.489C102.753 198.03 103.965 197.529 104.858 196.637C105.752 195.746 106.255 194.537 106.256 193.276V177.063L105.459 176.533L106.256 176.268V174.141L105.459 173.611L106.256 173.346V171.219L105.459 170.689L106.256 170.424V162.979C106.251 161.531 105.795 160.12 104.952 158.941C104.109 157.762 102.92 156.873 101.549 156.396ZM95.7273 151.71C97.5586 150.857 99.2324 150.85 100.843 151.688C100.913 151.726 100.97 151.782 101.01 151.85C101.05 151.918 101.071 151.996 101.07 152.075V153.826H95.4813V152.106C95.4805 152.024 95.5032 151.943 95.5468 151.873C95.5904 151.803 95.653 151.746 95.7273 151.71ZM105.36 169.779L103.437 170.419L105.36 171.698V172.701L103.437 173.341L105.36 174.62V175.624L103.437 176.263L105.36 177.542V193.276C105.358 194.3 104.95 195.281 104.225 196.005C103.499 196.729 102.515 197.136 101.489 197.137H94.4456C93.4166 197.136 92.4301 196.728 91.7025 196.002C90.9749 195.276 90.5656 194.292 90.5645 193.265V177.542L92.4874 176.263L90.5645 175.624V174.62L92.4874 173.341L90.5645 172.701V171.698L92.4874 170.419L90.5645 169.779V163.345C90.5588 161.891 91.0497 160.478 91.9563 159.339C92.8629 158.2 94.1312 157.403 95.5524 157.079L95.8996 156.999V155.346H100.652V157.059L100.975 157.153C102.238 157.524 103.346 158.291 104.136 159.341C104.926 160.391 105.355 161.667 105.36 162.979V169.779Z" fill="white"/>
<path d="M312.296 168.646L310.038 168.196L310.57 167.136L309.534 166.929L309.713 165.855L308.583 165.666V164.648L307.665 164.386L308.536 163.301H307.025L307.341 162.514L306.224 162.329L306.603 161.003H305.394V159.766H304.946C303.533 159.766 302.746 161.44 302.487 162.11C294.689 163.467 272.049 179.112 269.464 180.911C268.391 180.564 266.799 181.378 266.466 181.559L265.94 181.845L266.699 182.602L266.473 183.279L267.866 183.801L267.561 184.561L268.438 185.291L267.65 185.881L268.836 186.592L268.628 187.629L269.953 187.819V188.857L270.722 189.011L270.338 190.352H271.193V191.413H272.026L272.404 192.542L272.792 192.464C273.694 192.284 274.466 191.04 274.768 190.487C282.278 189.15 305.463 172.877 307.72 171.283C310.355 171.598 311.323 170.896 311.426 170.813L311.855 170.471L310.831 169.62L312.296 168.646ZM307.662 170.374L307.488 170.351L307.344 170.453C307.088 170.634 281.661 188.606 274.412 189.639L274.179 189.672L274.074 189.882C273.796 190.447 273.421 190.959 272.965 191.394L272.672 190.518H272.089V189.457H271.527L271.852 188.324L270.849 188.124V187.043L269.693 186.878L269.84 186.149L269.254 185.798L269.883 185.328L268.635 184.291L269.038 183.284L267.597 182.745L267.725 182.361L267.447 182.083C268.12 181.804 268.935 181.596 269.285 181.805L269.535 181.955L269.773 181.788C270.027 181.61 295.281 163.988 302.88 162.954L303.164 162.915L303.249 162.642C303.379 162.219 303.843 161.151 304.497 160.786V161.898H305.415L305.085 163.046L306.094 163.214L305.701 164.195H306.67L306.123 164.877L307.686 165.322V166.424L308.682 166.59L308.507 167.636L309.243 167.783L308.711 168.844L309.997 169.1L309.335 169.54L310.287 170.332C309.422 170.507 308.532 170.521 307.662 170.374Z" fill="white"/>
<path d="M195.267 254.836C202.448 254.836 208.269 249.029 208.269 241.865C208.269 234.702 202.448 228.894 195.267 228.894C188.086 228.894 182.265 234.702 182.265 241.865C182.265 249.029 188.086 254.836 195.267 254.836Z" fill="#758E4F"/>
<path d="M203.453 240.584H196.551V233.698H193.983V240.584H187.081V243.146H193.983V250.032H196.551V243.146H203.453V240.584Z" fill="white"/>
<path d="M236.274 242.313L229.549 239.182V240.971H213.857V243.654H229.549V245.444L236.274 242.313Z" fill="white"/>
<path d="M154.26 242.313L160.985 239.182V240.971H176.677V243.654H160.985V245.444L154.26 242.313Z" fill="white"/>
<path d="M359.583 345.187H30.9517V346.082H359.583V345.187Z" fill="#3F3D56"/>
<path d="M238.307 71.4514H152.227V72.3459H238.307V71.4514Z" fill="white"/>
<path d="M238.516 315.667H152.435V316.561H238.516V315.667Z" fill="white"/>
<path d="M376.828 227.329L374.586 235.827C374.586 235.827 366.516 253.718 374.586 254.613C382.656 255.507 383.104 231.354 383.104 231.354L376.828 227.329Z" fill="#A0616A"/>
<path d="M390.726 166.051L374.586 229.565C374.586 229.565 380.863 231.354 384.001 233.591L390.726 166.051Z" fill="#D0CDE1"/>
<path d="M441.388 214.358L445.871 283.686C445.871 283.686 456.632 310.97 456.183 336.913C456.183 336.913 452.148 347.2 455.287 348.989C458.425 350.778 460.218 352.12 458.425 353.462C456.632 354.804 455.287 357.935 456.632 358.829C457.977 359.724 458.425 361.066 457.977 361.066H444.526C444.526 361.066 447.216 354.356 443.181 352.567C439.146 350.778 441.388 346.305 441.388 346.305L411.35 258.638L387.588 339.149C387.588 339.149 391.623 341.833 388.484 343.174C385.346 344.516 384.001 341.833 385.346 344.516C386.691 347.2 384.898 348.542 384.898 348.989C384.898 349.436 371.448 347.647 371.448 347.647C371.448 347.647 378.173 341.833 375.034 340.491C371.896 339.149 370.551 337.807 371.448 336.913C372.344 336.018 375.931 327.52 375.931 327.52C375.931 327.52 377.724 295.315 378.173 293.974C378.621 292.632 378.173 286.37 378.173 283.239C378.173 280.108 377.724 267.584 379.069 264.453C380.414 261.322 381.759 222.856 388.933 218.383C396.106 213.91 441.388 214.358 441.388 214.358Z" fill="#2F2E41"/>
<path d="M384.45 346.753C384.45 346.753 393.416 365.091 387.14 367.328C380.863 369.564 372.793 367.775 370.999 370.459C369.206 373.142 349.479 376.273 349.031 369.564C348.583 362.855 370.551 350.331 370.551 350.331L373.413 345.734L384.45 346.753Z" fill="#2F2E41"/>
<path d="M457.08 360.171C457.08 360.171 466.047 378.51 459.77 380.746C453.493 382.982 445.423 381.193 443.63 383.877C441.836 386.561 422.11 389.692 421.661 382.982C421.213 376.273 443.181 363.749 443.181 363.749L446.043 359.152L457.08 360.171Z" fill="#2F2E41"/>
<path d="M415.609 130.045C423.78 130.045 430.404 123.437 430.404 115.285C430.404 107.133 423.78 100.525 415.609 100.525C407.438 100.525 400.814 107.133 400.814 115.285C400.814 123.437 407.438 130.045 415.609 130.045Z" fill="#A0616A"/>
<path d="M425.696 123.112L423.903 136.083L410.453 146.371L406.866 141.451V124.454L425.696 123.112Z" fill="#A0616A"/>
<path d="M404.625 139.662C404.625 139.662 418.523 141.004 425.696 136.083L440.043 220.62C440.043 220.62 389.381 224.645 387.139 221.961V195.572L396.106 152.633L404.625 139.662Z" fill="#3F3D56"/>
<path d="M424.462 132.042L429.283 136.083C429.283 136.083 449.01 139.214 447.665 144.582L442.285 208.096L444.078 229.565C444.078 229.565 428.835 225.54 417.178 229.565C405.521 233.591 414.782 143.06 414.782 143.06C414.782 143.06 425.469 133.367 424.462 132.042Z" fill="#D0CDE1"/>
<path d="M406.866 136.938C406.866 136.938 392.52 147.265 390.726 153.975C388.933 160.684 383.104 231.354 383.104 231.354C383.104 231.354 385.795 230.012 387.14 232.249C388.485 234.485 409.108 140.475 406.866 136.938Z" fill="#D0CDE1"/>
<path d="M446.32 230.46L443.106 240.922C443.106 240.922 442.285 260.427 431.525 257.744C420.765 255.06 434.663 232.249 434.663 232.249L437.801 227.329L446.32 230.46Z" fill="#A0616A"/>
<path d="M400.821 114.642C400.821 114.642 399.219 112.245 399.835 109.664C400.203 108.198 400.349 106.686 400.266 105.177C400.266 105.177 401.56 100.998 402.854 98.6629C404.147 96.3275 403.531 95.3442 407.597 94.6067C411.663 93.8692 410 88.5839 420.718 94.2994C421.08 94.8031 421.583 95.1887 422.164 95.4075C422.745 95.6262 423.378 95.6684 423.983 95.5286C426.201 95.0984 427.002 98.1712 427.002 98.1712C427.002 98.1712 428.48 97.3108 429.035 98.54C429.589 99.7691 433.542 97.8023 433.542 106.099C433.542 114.396 429.044 121.807 429.044 121.807C429.044 121.807 429.374 107.851 422.043 106.437C414.712 105.024 406.827 100.906 404.917 106.191C403.887 109.158 402.512 111.994 400.821 114.642Z" fill="#2F2E41"/>
<path d="M429.204 117.96C430.003 117.96 430.65 117.099 430.65 116.037C430.65 114.974 430.003 114.113 429.204 114.113C428.406 114.113 427.759 114.974 427.759 116.037C427.759 117.099 428.406 117.96 429.204 117.96Z" fill="#A0616A"/>
<path d="M444.078 141.451C444.078 141.451 451.252 139.662 453.493 151.738C455.735 163.815 458.425 198.255 458.425 198.255L447.665 234.485C447.665 234.485 436.905 228.671 434.663 229.565L443.13 198.112L436.008 166.051C436.008 166.051 442.285 141.451 444.078 141.451Z" fill="#D0CDE1"/>
<path opacity="0.15" d="M433.648 166.663L443.063 197.973L433.648 229.73L439.028 197.973L433.648 166.663Z" fill="black"/>
</svg>
