<?xml version="1.0" standalone="no"?>
<!DOCTYPE svg PUBLIC "-//W3C//DTD SVG 20010904//EN"
 "http://www.w3.org/TR/2001/REC-SVG-20010904/DTD/svg10.dtd">
<svg version="1.0" xmlns="http://www.w3.org/2000/svg"
 width="962.000000pt" height="1077.000000pt" viewBox="0 0 962.000000 1077.000000"
 preserveAspectRatio="xMidYMid meet">
<metadata>
Created by potrace 1.16, written by Peter Selinger 2001-2019
</metadata>
<g transform="translate(0.000000,1077.000000) scale(0.100000,-0.100000)"
fill="#000000" stroke="none">
<path d="M4709 9700 c-9 -11 -45 -51 -80 -88 -121 -128 -190 -212 -187 -226 3
-13 90 -112 227 -258 30 -32 60 -58 66 -58 7 0 28 17 45 38 18 20 71 79 118
130 104 114 122 136 122 154 0 11 -101 135 -129 158 -3 3 -39 42 -80 88 -40
45 -76 82 -80 82 -3 0 -13 -9 -22 -20z"/>
<path d="M4185 9092 c-8 -6 -50 -56 -102 -122 -6 -8 -34 -43 -62 -77 -28 -34
-51 -69 -51 -77 0 -21 290 -306 304 -299 6 2 42 44 79 91 37 48 86 107 108
132 22 25 38 50 37 56 -4 17 -281 304 -293 304 -5 0 -14 -4 -20 -8z"/>
<path d="M5115 8953 c-80 -82 -145 -153 -145 -159 0 -11 195 -249 222 -272 11
-9 45 19 167 138 100 98 150 154 145 162 -10 18 -144 188 -167 213 -11 11 -26
30 -34 43 -9 12 -22 22 -29 22 -8 0 -79 -66 -159 -147z"/>
<path d="M4653 8463 c-37 -42 -87 -97 -110 -122 -23 -25 -43 -53 -43 -62 0 -9
33 -52 73 -96 39 -43 92 -101 116 -128 l43 -49 47 50 c116 126 186 207 189
219 2 7 -3 19 -10 27 -13 13 -127 142 -183 206 -15 17 -34 32 -41 32 -7 0 -43
-34 -81 -77z"/>
<path d="M3653 8403 c-79 -108 -113 -161 -113 -176 0 -13 28 -40 217 -206 l82
-72 38 53 c22 29 50 69 63 88 13 19 27 37 30 40 3 3 16 21 28 42 l22 36 -122
108 c-68 59 -134 118 -147 131 -13 13 -29 23 -36 23 -7 0 -35 -30 -62 -67z"/>
<path d="M5689 8424 c-53 -45 -200 -176 -226 -202 -7 -7 -13 -17 -13 -22 0
-14 161 -231 176 -237 7 -3 31 11 51 31 48 44 100 91 185 164 43 36 66 63 64
74 -5 24 -159 238 -172 238 -5 0 -35 -21 -65 -46z"/>
<path d="M4237 7958 c-8 -13 -31 -41 -50 -63 -20 -22 -37 -43 -37 -47 0 -4
-15 -24 -34 -44 -19 -21 -37 -46 -39 -56 -4 -12 30 -53 115 -138 l121 -120 18
22 c11 11 19 24 19 27 0 3 14 22 30 41 16 19 33 40 37 45 5 6 24 30 43 55 19
25 39 48 45 52 10 8 -226 248 -244 248 -5 0 -15 -10 -24 -22z"/>
<path d="M5086 7869 c-64 -61 -116 -118 -116 -125 0 -8 28 -51 63 -95 34 -45
69 -91 77 -102 44 -64 38 -66 146 42 157 157 149 146 132 173 -9 13 -24 33
-34 45 -11 13 -46 57 -78 98 -33 41 -63 75 -67 75 -4 0 -59 -50 -123 -111z"/>
<path d="M6135 7880 c-3 -5 -42 -37 -85 -70 -44 -33 -91 -71 -105 -83 -14 -12
-43 -35 -65 -52 -36 -28 -51 -59 -32 -67 4 -1 36 -50 72 -108 35 -58 65 -107
66 -108 1 -2 60 43 132 100 71 56 141 112 156 123 l27 20 -18 33 c-10 19 -22
41 -28 51 -104 178 -107 183 -120 161z"/>
<path d="M3265 7813 c-22 -37 -43 -74 -48 -82 -4 -9 -16 -29 -26 -46 -11 -16
-20 -37 -20 -46 -1 -8 31 -40 71 -70 39 -29 76 -58 82 -64 6 -5 34 -28 61 -50
28 -22 56 -45 63 -52 7 -7 17 -13 22 -13 8 0 150 226 150 240 0 4 -15 21 -34
36 -135 115 -262 214 -273 214 -5 0 -27 -30 -48 -67z"/>
<path d="M4664 7436 c-159 -171 -154 -164 -128 -191 9 -9 54 -59 101 -113 47
-53 89 -98 93 -100 4 -2 56 52 114 118 l107 121 -37 42 c-95 107 -173 187
-182 187 -5 0 -36 -29 -68 -64z"/>
<path d="M3823 7403 c-45 -61 -123 -182 -123 -190 0 -5 57 -60 127 -123 l126
-113 19 24 c10 13 25 33 33 44 8 10 15 25 15 31 0 7 4 14 8 16 14 5 72 96 72
111 0 8 -44 54 -97 103 -54 49 -105 97 -114 106 -23 25 -42 22 -66 -9z"/>
<path d="M5550 7383 c-30 -27 -85 -77 -122 -113 l-68 -65 72 -112 c40 -62 78
-113 83 -113 6 1 31 20 56 43 25 23 80 73 122 110 43 38 77 72 77 77 0 16
-143 220 -154 220 -7 0 -36 -21 -66 -47z"/>
<path d="M4245 6948 c-27 -34 -58 -73 -67 -87 -10 -14 -23 -33 -28 -41 -9 -12
12 -38 104 -134 63 -65 119 -115 125 -112 5 4 35 42 65 85 30 43 62 84 71 91
8 7 15 20 15 29 0 17 -208 231 -225 231 -6 0 -32 -28 -60 -62z"/>
<path d="M5073 6933 c-44 -43 -95 -95 -112 -115 l-32 -37 32 -43 c53 -69 83
-111 102 -141 10 -16 24 -27 30 -25 7 2 63 56 126 120 l113 117 -49 62 c-26
34 -59 78 -73 98 -14 20 -33 37 -42 39 -9 2 -50 -31 -95 -75z"/>
<path d="M4686 6515 c-20 -24 -42 -50 -49 -57 -29 -30 -77 -97 -77 -106 0 -6
3 -12 8 -14 4 -1 29 -32 57 -68 64 -84 97 -120 111 -120 7 0 19 12 29 26 9 14
25 35 35 47 80 95 108 133 102 143 -16 26 -163 194 -171 194 -5 0 -25 -20 -45
-45z"/>
<path d="M2325 4079 c-27 -11 -58 -22 -67 -25 -10 -4 -18 -10 -18 -14 0 -5 -9
-11 -19 -15 -47 -15 -171 -171 -171 -215 0 -17 39 28 40 46 0 6 27 40 60 76
57 63 129 109 191 122 73 16 163 -51 254 -189 101 -153 153 -296 215 -595 28
-135 42 -389 37 -640 -4 -140 -8 -269 -11 -285 -9 -56 4 -62 114 -51 111 11
107 8 115 79 11 98 67 314 104 402 5 11 17 40 26 65 71 179 214 463 304 600
20 30 38 59 40 65 2 5 35 51 72 101 229 310 468 450 753 442 79 -2 100 0 104
11 10 30 -29 41 -145 41 -240 0 -435 -74 -633 -239 -129 -108 -252 -259 -350
-431 -102 -180 -225 -473 -275 -655 -31 -114 -40 -140 -50 -138 -5 2 -13 53
-17 115 -13 186 -27 359 -38 433 -21 157 -72 376 -105 461 -9 21 -19 48 -24
59 -31 79 -104 205 -144 251 -115 128 -237 170 -362 123z"/>
<path d="M5932 3297 c-6 -7 -13 -64 -15 -127 -14 -405 -29 -626 -44 -655 -20
-39 -93 -115 -110 -115 -7 0 -13 -4 -13 -10 0 -5 -15 -10 -33 -10 -36 0 -45
11 -67 84 -14 43 -8 335 9 490 5 48 7 95 4 102 -6 17 -158 20 -169 3 -3 -6
-15 -83 -25 -172 -32 -280 -68 -414 -129 -479 -65 -67 -132 -42 -162 61 -32
112 -4 385 54 521 48 112 112 187 172 200 55 12 89 3 107 -29 20 -34 81 -65
112 -55 31 9 57 34 57 54 0 9 -8 24 -17 33 -22 19 -128 47 -181 47 -103 0
-260 -83 -345 -182 -146 -171 -183 -490 -76 -648 38 -56 65 -76 121 -91 64
-17 122 2 175 57 40 41 83 114 83 140 0 6 7 25 15 40 8 16 15 41 15 56 0 30
16 46 32 30 5 -5 16 -40 24 -76 17 -82 46 -145 85 -182 43 -41 99 -39 168 5
28 18 51 39 51 46 0 7 10 12 23 11 19 -1 22 -6 21 -41 -1 -22 -5 -219 -9 -437
l-8 -397 28 -7 c15 -4 35 -2 44 3 17 11 18 28 40 485 6 115 14 216 20 225 7
14 25 17 103 18 87 0 97 2 158 35 170 91 296 294 336 540 43 266 -26 398 -197
375 -84 -12 -180 -99 -266 -242 -57 -95 -70 -95 -60 0 14 124 26 215 32 249 7
34 5 39 -20 48 -38 14 -130 13 -143 -3z m459 -135 c30 -27 32 -32 36 -123 13
-247 -80 -519 -218 -644 -83 -75 -188 -96 -208 -42 -8 22 -2 100 18 218 44
270 168 521 296 600 39 24 39 24 76 -9z"/>
<path d="M6752 3298 c-7 -9 -15 -93 -21 -234 -20 -433 -31 -672 -41 -829 -5
-88 -13 -271 -16 -407 l-6 -247 26 -12 c20 -9 32 -9 51 -1 21 10 25 19 25 54
1 85 21 485 28 570 4 47 11 90 15 94 4 5 49 8 100 9 79 0 99 4 142 27 175 92
294 274 346 530 37 181 15 310 -63 369 -28 20 -44 24 -100 23 -76 0 -120 -23
-195 -101 -42 -44 -107 -136 -120 -169 -3 -10 -15 -26 -24 -35 -35 -35 -35
-15 7 250 11 67 12 97 4 105 -17 17 -144 21 -158 4z m450 -127 c48 -38 60
-139 34 -306 -43 -275 -147 -462 -293 -527 -50 -22 -102 -19 -124 8 -26 31 29
336 88 489 29 77 77 175 85 175 4 0 8 5 8 10 0 20 84 122 120 146 43 28 51 29
82 5z"/>
<path d="M3810 3211 c-93 -39 -139 -71 -201 -139 -101 -112 -144 -227 -144
-382 0 -138 27 -215 104 -295 50 -52 117 -87 183 -93 62 -6 171 20 245 60 78
41 185 128 195 159 6 17 48 1 48 -18 0 -28 42 -101 80 -138 26 -26 51 -38 92
-47 52 -11 59 -10 112 16 41 20 66 42 94 81 33 46 85 153 106 218 3 10 10 15
16 12 11 -7 12 -140 1 -245 -6 -61 -8 -65 -36 -74 -154 -46 -290 -150 -364
-279 -37 -65 -55 -118 -77 -227 -14 -72 -15 -94 -5 -150 21 -110 48 -173 97
-221 45 -44 45 -44 119 -44 l74 0 50 52 c66 69 105 154 154 338 28 107 45 188
61 305 26 176 28 185 53 188 39 6 100 -34 113 -73 14 -43 40 -47 40 -7 0 41
-59 99 -116 113 -32 8 -46 17 -50 33 -2 11 0 107 6 211 12 228 13 475 1 493
-5 9 -24 12 -57 10 -55 -3 -50 7 -74 -163 -24 -175 -57 -305 -101 -400 -31
-67 -41 -80 -83 -113 -38 -29 -69 -28 -106 6 -27 23 -33 39 -47 120 -16 88
-16 101 2 225 28 205 78 339 152 408 61 58 136 61 167 7 21 -35 78 -62 109
-52 27 8 57 38 57 57 0 37 -94 77 -180 77 -48 0 -147 -27 -191 -52 -94 -53
-170 -134 -218 -233 -50 -102 -71 -187 -71 -282 0 -101 -15 -125 -125 -208
-77 -58 -134 -85 -218 -105 -48 -11 -64 -11 -98 0 -42 14 -119 90 -119 117 0
18 27 50 124 154 87 92 101 109 173 206 130 177 165 293 105 353 -56 56 -151
64 -252 21z m124 -31 c14 -13 8 -127 -10 -194 -45 -164 -219 -444 -271 -434
-16 3 -18 15 -21 108 -9 284 135 563 273 532 11 -2 24 -8 29 -12z m784 -907
c21 -36 -29 -455 -75 -637 -17 -66 -55 -142 -80 -162 -30 -23 -69 -16 -102 17
-75 74 -90 290 -34 474 44 145 135 265 234 309 44 19 46 19 57 -1z"/>
</g>
</svg>
