<svg width="100" height="25" viewBox="0 0 100 25" fill="none" xmlns="http://www.w3.org/2000/svg">
<path d="M25 12.576C25 5.67292 19.4031 0.0760422 12.5 0.0760422C5.59687 0.0760422 0 5.67292 0 12.576C0 18.8156 4.57083 23.9865 10.5469 24.924V16.1896H7.37292V12.575H10.5469V9.82292C10.5469 6.69063 12.4135 4.95938 15.2687 4.95938C16.6354 4.95938 18.0667 5.20417 18.0667 5.20417V8.28021H16.4896C14.9365 8.28021 14.4521 9.24375 14.4521 10.2323V12.576H17.9187L17.3646 16.1906H14.4521V24.925C20.4292 23.9865 25 18.8146 25 12.576Z" fill="black"/>
<g clip-path="url(#clip0_338_177)">
<path d="M50 0C46.6042 0 46.1802 0.015625 44.8469 0.075C43.5156 0.1375 42.6094 0.346875 41.8125 0.65625C40.9906 0.975 40.2927 1.40312 39.5979 2.09792C38.9031 2.79271 38.474 3.48958 38.1562 4.3125C37.8469 5.10937 37.6365 6.01562 37.575 7.34687C37.5125 8.68021 37.5 9.10417 37.5 12.5C37.5 15.8958 37.5156 16.3198 37.575 17.6531C37.6375 18.9833 37.8469 19.8906 38.1562 20.6875C38.475 21.5083 38.9031 22.2073 39.5979 22.9021C40.2927 23.5958 40.9896 24.026 41.8125 24.3438C42.6104 24.6521 43.5167 24.8635 44.8469 24.925C46.1802 24.9875 46.6042 25 50 25C53.3958 25 53.8198 24.9844 55.1531 24.925C56.4833 24.8625 57.3906 24.6521 58.1875 24.3438C59.0083 24.025 59.7073 23.5958 60.4021 22.9021C61.0958 22.2073 61.526 21.5115 61.8438 20.6875C62.1521 19.8906 62.3635 18.9833 62.425 17.6531C62.4875 16.3198 62.5 15.8958 62.5 12.5C62.5 9.10417 62.4844 8.68021 62.425 7.34687C62.3625 6.01667 62.1521 5.10833 61.8438 4.3125C61.525 3.49062 61.0958 2.79271 60.4021 2.09792C59.7073 1.40312 59.0115 0.973958 58.1875 0.65625C57.3906 0.346875 56.4833 0.136458 55.1531 0.075C53.8198 0.0125 53.3958 0 50 0ZM50 2.25C53.3365 2.25 53.7344 2.26667 55.0521 2.32396C56.2708 2.38125 56.9323 2.58333 57.3719 2.75625C57.9573 2.98229 58.3719 3.25312 58.8115 3.68958C59.2479 4.12708 59.5187 4.54271 59.7448 5.12812C59.9156 5.56771 60.1198 6.22917 60.175 7.44792C60.2344 8.76667 60.2479 9.1625 60.2479 12.5C60.2479 15.8375 60.2323 16.2344 60.1708 17.5521C60.1073 18.7708 59.9042 19.4323 59.7323 19.8719C59.499 20.4573 59.2333 20.8719 58.7958 21.3115C58.3594 21.7479 57.9375 22.0187 57.3583 22.2448C56.9208 22.4156 56.249 22.6198 55.0302 22.675C53.7031 22.7344 53.3125 22.7479 49.9688 22.7479C46.624 22.7479 46.2333 22.7323 44.9073 22.6708C43.6875 22.6073 43.0156 22.4042 42.5781 22.2323C41.9854 21.999 41.5781 21.7333 41.1417 21.2958C40.7031 20.8594 40.4229 20.4375 40.2042 19.8583C40.0323 19.4208 39.8302 18.749 39.7667 17.5302C39.7198 16.2177 39.7031 15.8125 39.7031 12.4844C39.7031 9.15521 39.7198 8.74896 39.7667 7.42083C39.8302 6.20208 40.0323 5.53125 40.2042 5.09375C40.4229 4.5 40.7031 4.09375 41.1417 3.65521C41.5781 3.21875 41.9854 2.9375 42.5781 2.71979C43.0156 2.54688 43.6729 2.34375 44.8917 2.28125C46.2198 2.23438 46.6104 2.21875 49.9531 2.21875L50 2.25ZM50 6.08125C46.4531 6.08125 43.5812 8.95625 43.5812 12.5C43.5812 16.0469 46.4562 18.9188 50 18.9188C53.5469 18.9188 56.4188 16.0437 56.4188 12.5C56.4188 8.95312 53.5437 6.08125 50 6.08125ZM50 16.6667C47.6979 16.6667 45.8333 14.8021 45.8333 12.5C45.8333 10.1979 47.6979 8.33333 50 8.33333C52.3021 8.33333 54.1667 10.1979 54.1667 12.5C54.1667 14.8021 52.3021 16.6667 50 16.6667ZM58.1729 5.82812C58.1729 6.65625 57.5 7.32812 56.6729 7.32812C55.8448 7.32812 55.1729 6.65521 55.1729 5.82812C55.1729 5.00104 55.8458 4.32917 56.6729 4.32917C57.499 4.32812 58.1729 5.00104 58.1729 5.82812Z" fill="black"/>
</g>
<path d="M99.951 4.76042C99.0151 5.17251 98.0235 5.44452 97.0083 5.56771C98.0772 4.92526 98.8775 3.91776 99.2615 2.73125C98.2708 3.30938 97.1729 3.73021 96.0042 3.96458C95.2331 3.14003 94.2113 2.59315 93.0975 2.40886C91.9838 2.22456 90.8403 2.41318 89.8447 2.94541C88.8491 3.47764 88.0571 4.3237 87.5917 5.35221C87.1263 6.38073 87.0135 7.53414 87.2708 8.63333C83.0104 8.43229 79.2365 6.38542 76.7083 3.29375C76.2487 4.07481 76.009 4.96565 76.0146 5.87188C76.0146 7.65313 76.9208 9.21875 78.2937 10.1385C77.4801 10.1126 76.6843 9.89264 75.9729 9.49687V9.55938C75.9725 10.7431 76.3815 11.8906 77.1307 12.807C77.8799 13.7235 78.9231 14.3526 80.0833 14.5875C79.3316 14.7889 78.5442 14.8192 77.7792 14.676C78.1085 15.6948 78.7476 16.5854 79.6073 17.2234C80.467 17.8615 81.5045 18.2153 82.575 18.2354C80.762 19.6583 78.5234 20.4305 76.2187 20.4281C75.8125 20.4281 75.4073 20.4042 75 20.3583C77.3497 21.8628 80.0818 22.6615 82.8719 22.6594C92.3021 22.6594 97.4531 14.851 97.4531 8.09167C97.4531 7.87292 97.4531 7.65417 97.4375 7.43542C98.4437 6.71132 99.3117 5.81231 100 4.78125L99.951 4.76042Z" fill="black"/>
<defs>
<clipPath id="clip0_338_177">
<rect width="25" height="25" fill="white" transform="translate(37.5)"/>
</clipPath>
</defs>
</svg>
